<?xml version="1.0" standalone="no"?>
<!DOCTYPE svg PUBLIC "-//W3C//DTD SVG 20010904//EN"
 "http://www.w3.org/TR/2001/REC-SVG-20010904/DTD/svg10.dtd">
<svg version="1.0" xmlns="http://www.w3.org/2000/svg"
 width="194.000000pt" height="194.000000pt" viewBox="0 0 194.000000 194.000000"
 preserveAspectRatio="xMidYMid meet">
<metadata>
Created by potrace 1.14, written by Peter Selinger 2001-2017
</metadata>
<g transform="translate(0.000000,194.000000) scale(0.100000,-0.100000)"
fill="#000000" stroke="none">
<path d="M899 1702 c-317 -163 -524 -470 -535 -797 -4 -128 11 -208 57 -300
44 -90 53 -103 100 -152 l44 -46 -44 24 c-103 55 -207 194 -241 322 -9 34 -18
47 -31 47 -24 0 -41 -83 -43 -212 -3 -158 -4 -157 70 -206 107 -72 257 -131
368 -146 27 -4 53 -9 58 -12 14 -9 209 -5 263 5 226 42 401 143 502 291 33 48
83 160 83 184 0 8 4 17 8 20 11 6 5 -86 -9 -149 -16 -71 -71 -171 -128 -233
-49 -53 -57 -82 -22 -82 27 0 166 65 246 115 84 52 77 36 80 199 5 334 -183
663 -467 819 -47 26 -116 52 -165 62 -58 12 -190 13 -247 1 -52 -12 -57 -11
-40 1 27 21 91 48 148 62 61 15 196 12 244 -5 49 -17 69 -17 76 1 7 20 -31 55
-129 120 -89 59 -157 95 -178 95 -7 0 -38 -13 -68 -28z m247 -571 c100 -21
218 -74 277 -124 35 -29 38 -37 42 -91 7 -112 -46 -230 -142 -315 -59 -53
-112 -82 -203 -111 -69 -22 -217 -24 -297 -3 -212 55 -357 225 -355 417 1 78
0 77 97 140 147 96 376 130 581 87z"/>
<path d="M908 1093 c-23 -6 -23 -12 2 -38 43 -46 33 -117 -19 -148 -48 -28
-99 -18 -131 27 -14 20 -14 20 -21 -4 -54 -192 141 -363 321 -283 177 79 191
321 25 419 -44 25 -130 38 -177 27z"/>
</g>
</svg>
